<mxfile host="65bd71144e">
    <diagram id="DN9EhgJX8J1EQ9XQAtQa" name="Page-1">
        <mxGraphModel dx="766" dy="695" grid="1" gridSize="10" guides="1" tooltips="1" connect="1" arrows="1" fold="1" page="1" pageScale="1" pageWidth="827" pageHeight="1169" math="1" shadow="0">
            <root>
                <mxCell id="0"/>
                <mxCell id="1" parent="0"/>
                <mxCell id="4" value="Time" style="text;strokeColor=none;fillColor=none;html=1;fontSize=17;fontStyle=0;verticalAlign=middle;align=center;fontFamily=Times New Roman;" vertex="1" parent="1">
                    <mxGeometry x="590" y="400" width="100" height="40" as="geometry"/>
                </mxCell>
                <mxCell id="5" value="SM 1" style="text;strokeColor=none;fillColor=none;html=1;fontSize=17;fontStyle=0;verticalAlign=middle;align=center;fontFamily=Times New Roman;" vertex="1" parent="1">
                    <mxGeometry x="30" y="140" width="100" height="40" as="geometry"/>
                </mxCell>
                <mxCell id="16" value="" style="rounded=0;whiteSpace=wrap;html=1;fontFamily=Times New Roman;fontSize=17;fillColor=none;strokeColor=#000000;" vertex="1" parent="1">
                    <mxGeometry x="120" y="80" width="520" height="320" as="geometry"/>
                </mxCell>
                <mxCell id="6" value="SM 0" style="text;strokeColor=none;fillColor=none;html=1;fontSize=17;fontStyle=0;verticalAlign=middle;align=center;fontFamily=Times New Roman;" vertex="1" parent="1">
                    <mxGeometry x="30" y="300" width="100" height="40" as="geometry"/>
                </mxCell>
                <mxCell id="21" value="" style="endArrow=none;html=1;fontFamily=Times New Roman;fontSize=17;exitX=0;exitY=0.5;exitDx=0;exitDy=0;entryX=1;entryY=0.5;entryDx=0;entryDy=0;" edge="1" parent="1" source="16" target="16">
                    <mxGeometry width="50" height="50" relative="1" as="geometry">
                        <mxPoint x="430" y="410" as="sourcePoint"/>
                        <mxPoint x="480" y="360" as="targetPoint"/>
                    </mxGeometry>
                </mxCell>
                <mxCell id="36" value="" style="group;fillColor=#008a00;fontColor=#ffffff;strokeColor=#005700;" vertex="1" connectable="0" parent="1">
                    <mxGeometry x="320" y="200" width="290" height="80" as="geometry"/>
                </mxCell>
                <mxCell id="31" value="$$K_2: 2$$" style="rounded=0;whiteSpace=wrap;html=1;fontFamily=Times New Roman;fontSize=17;fillColor=#00CC00;fontColor=#ffffff;strokeColor=#2D7600;" vertex="1" parent="36">
                    <mxGeometry y="40" width="290" height="20" as="geometry"/>
                </mxCell>
                <mxCell id="33" value="$$K_2: 0$$" style="rounded=0;whiteSpace=wrap;html=1;fontFamily=Times New Roman;fontSize=17;fillColor=#00CC00;fontColor=#ffffff;strokeColor=#000000;" vertex="1" parent="36">
                    <mxGeometry y="60" width="290" height="20" as="geometry"/>
                </mxCell>
                <mxCell id="34" value="$$K_2: 1$$" style="rounded=0;whiteSpace=wrap;html=1;fontFamily=Times New Roman;fontSize=17;fillColor=#d80073;fontColor=#ffffff;strokeColor=#000000;" vertex="1" parent="36">
                    <mxGeometry y="20" width="290" height="20" as="geometry"/>
                </mxCell>
                <mxCell id="35" value="$$K_2: 3$$" style="rounded=0;whiteSpace=wrap;html=1;fontFamily=Times New Roman;fontSize=17;fillColor=#d80073;fontColor=#ffffff;strokeColor=#000000;" vertex="1" parent="36">
                    <mxGeometry width="290" height="20" as="geometry"/>
                </mxCell>
                <mxCell id="38" value="$$K_2: 3$$" style="rounded=0;whiteSpace=wrap;html=1;fontFamily=Times New Roman;fontSize=17;fillColor=#00CC00;fontColor=#ffffff;strokeColor=#000000;" vertex="1" parent="36">
                    <mxGeometry width="290" height="20" as="geometry"/>
                </mxCell>
                <mxCell id="39" value="$$K_2: 1$$" style="rounded=0;whiteSpace=wrap;html=1;fontFamily=Times New Roman;fontSize=17;fillColor=#00CC00;fontColor=#ffffff;strokeColor=#000000;" vertex="1" parent="36">
                    <mxGeometry y="20" width="290" height="20" as="geometry"/>
                </mxCell>
                <mxCell id="40" value="" style="shape=flexArrow;endArrow=classic;html=1;fontFamily=Times New Roman;fontSize=17;endWidth=10;endSize=2.6857142857142855;" edge="1" parent="1">
                    <mxGeometry width="50" height="50" relative="1" as="geometry">
                        <mxPoint x="140" y="430" as="sourcePoint"/>
                        <mxPoint x="140" y="410" as="targetPoint"/>
                    </mxGeometry>
                </mxCell>
                <mxCell id="41" value="K1, K2 launch" style="text;strokeColor=none;fillColor=none;html=1;fontSize=15;fontStyle=0;verticalAlign=middle;align=center;fontFamily=Times New Roman;horizontal=1;" vertex="1" parent="1">
                    <mxGeometry x="90" y="440" width="100" height="20" as="geometry"/>
                </mxCell>
                <mxCell id="22" value="$$K_1: 0$$" style="rounded=0;whiteSpace=wrap;html=1;fontFamily=Times New Roman;fontSize=17;fillColor=#3399FF;fontColor=#ffffff;strokeColor=#000000;" vertex="1" parent="1">
                    <mxGeometry x="140" y="340" width="180" height="60" as="geometry"/>
                </mxCell>
                <mxCell id="23" value="$$K_1: 2$$" style="rounded=0;whiteSpace=wrap;html=1;fontFamily=Times New Roman;fontSize=17;fillColor=#3399FF;fontColor=#ffffff;strokeColor=#000000;" vertex="1" parent="1">
                    <mxGeometry x="140" y="280" width="180" height="60" as="geometry"/>
                </mxCell>
                <mxCell id="26" value="$$K_1: 4$$" style="rounded=0;whiteSpace=wrap;html=1;fontFamily=Times New Roman;fontSize=17;fillColor=#3399FF;fontColor=#ffffff;strokeColor=#000000;" vertex="1" parent="1">
                    <mxGeometry x="320" y="340" width="180" height="60" as="geometry"/>
                </mxCell>
                <mxCell id="28" value="$$K_1: 5$$" style="rounded=0;whiteSpace=wrap;html=1;fontFamily=Times New Roman;fontSize=17;fillColor=#3399FF;fontColor=#ffffff;strokeColor=#000000;" vertex="1" parent="1">
                    <mxGeometry x="320" y="280" width="180" height="60" as="geometry"/>
                </mxCell>
                <mxCell id="29" value="$$K_1: 1$$" style="rounded=0;whiteSpace=wrap;html=1;fontFamily=Times New Roman;fontSize=17;fillColor=#3399FF;fontColor=#ffffff;strokeColor=#000000;" vertex="1" parent="1">
                    <mxGeometry x="140" y="180" width="180" height="60" as="geometry"/>
                </mxCell>
                <mxCell id="30" value="$$K_1: 3$$" style="rounded=0;whiteSpace=wrap;html=1;fontFamily=Times New Roman;fontSize=17;fillColor=#3399FF;fontColor=#ffffff;strokeColor=#000000;" vertex="1" parent="1">
                    <mxGeometry x="140" y="120" width="180" height="60" as="geometry"/>
                </mxCell>
                <mxCell id="42" value="" style="endArrow=none;dashed=1;html=1;fontFamily=Times New Roman;fontSize=25;" edge="1" parent="1">
                    <mxGeometry width="50" height="50" relative="1" as="geometry">
                        <mxPoint x="140" y="400" as="sourcePoint"/>
                        <mxPoint x="140" y="80" as="targetPoint"/>
                    </mxGeometry>
                </mxCell>
                <mxCell id="43" value="$$t_0$$" style="text;html=1;strokeColor=none;fillColor=none;align=center;verticalAlign=middle;whiteSpace=wrap;rounded=0;fontFamily=Times New Roman;fontSize=17;" vertex="1" parent="1">
                    <mxGeometry x="110" y="50" width="60" height="30" as="geometry"/>
                </mxCell>
                <mxCell id="44" value="" style="endArrow=none;dashed=1;html=1;fontFamily=Times New Roman;fontSize=25;" edge="1" parent="1">
                    <mxGeometry width="50" height="50" relative="1" as="geometry">
                        <mxPoint x="320" y="400" as="sourcePoint"/>
                        <mxPoint x="320" y="80" as="targetPoint"/>
                    </mxGeometry>
                </mxCell>
                <mxCell id="45" value="$$t_1$$" style="text;html=1;strokeColor=none;fillColor=none;align=center;verticalAlign=middle;whiteSpace=wrap;rounded=0;fontFamily=Times New Roman;fontSize=17;" vertex="1" parent="1">
                    <mxGeometry x="290" y="50" width="60" height="30" as="geometry"/>
                </mxCell>
            </root>
        </mxGraphModel>
    </diagram>
</mxfile>